<svg xmlns="http://www.w3.org/2000/svg" viewBox="0 0 800 800" role="img" aria-labelledby="t5 d5">
  <title id="t5">Bijtijds 7 met zeven uitneembare dagvakjes</title>
  <desc id="d5">Zeven losse dagdoosjes naast elkaar, van maandag tot en met zondag, elk met vier vakjes voor ochtend, middag, avond en nacht.</desc>
  <defs>
    <radialGradient id="doek" cx="42%" cy="30%" r="80%">
      <stop offset="0" stop-color="#ffffff"/><stop offset="1" stop-color="#eee7dc"/>
    </radialGradient>
    <linearGradient id="romp" x1="18%" y1="4%" x2="82%" y2="96%">
      <stop offset="0" stop-color="#ffffff"/><stop offset=".45" stop-color="#f6f7f8"/>
      <stop offset=".78" stop-color="#e4e8ec"/><stop offset="1" stop-color="#d2d9e0"/>
    </linearGradient>
    <linearGradient id="wand" x1="0%" y1="0%" x2="100%" y2="0%">
      <stop offset="0" stop-color="#b6bfc8"/><stop offset=".22" stop-color="#e8ecef"/>
      <stop offset=".55" stop-color="#cdd5dc"/><stop offset="1" stop-color="#a7b1bb"/>
    </linearGradient>
    <linearGradient id="scherm" x1="0%" y1="0%" x2="0%" y2="100%">
      <stop offset="0" stop-color="#3f4f43"/><stop offset=".5" stop-color="#5d7a63"/>
      <stop offset="1" stop-color="#46583f"/>
    </linearGradient>
    <filter id="zacht" x="-30%" y="-30%" width="160%" height="160%">
      <feGaussianBlur stdDeviation="16"/>
    </filter>
    <filter id="bak" x="-20%" y="-20%" width="140%" height="140%">
      <feDropShadow dx="0" dy="10" stdDeviation="14" flood-color="#14212e" flood-opacity=".18"/>
    </filter>
    <filter id="bakje" x="-40%" y="-40%" width="180%" height="180%">
      <feDropShadow dx="0" dy="3" stdDeviation="4" flood-color="#14212e" flood-opacity=".22"/>
    </filter>
  </defs>

  <rect width="800" height="800" fill="url(#doek)"/>
  <ellipse cx="400" cy="606" rx="330" ry="42" fill="#9a8f7f" opacity=".38" filter="url(#zacht)"/>
  <g filter="url(#bak)">
    <rect x="70" y="150" width="660" height="440" rx="30" fill="url(#romp)"
          stroke="#aab4be" stroke-width="2.5"/>
  </g>
  <g filter="url(#bak)">
    <rect x="248" y="182" width="304" height="86" rx="14" fill="#1f2a22"/>
    <rect x="260" y="192" width="280" height="66" rx="9" fill="url(#scherm)"/>
    <text x="400" y="242" text-anchor="middle" font-family="'Courier New',monospace"
          font-size="44" font-weight="700" fill="#101a12" letter-spacing="5">12:30</text>
  </g>
  <ellipse cx="150" cy="224" rx="30" ry="27" fill="#0f6b5c" stroke="#0a4d42" stroke-width="2"/>
  <ellipse cx="150" cy="219" rx="21" ry="18" fill="#178a76"/>
  <ellipse cx="650" cy="224" rx="30" ry="27" fill="#e9edf1" stroke="#b3bcc5" stroke-width="2"/>
  <ellipse cx="650" cy="219" rx="21" ry="18" fill="#fbfcfd"/>
  <g filter="url(#bakje)">
      <rect x="96" y="318" width="84" height="252" rx="14" fill="#ffffff"
            stroke="#c3ccd4" stroke-width="2"/>
      <rect x="106" y="330" width="64" height="52" rx="8" fill="#eef1f4" stroke="#d6dde3" stroke-width="1.5"/>
      <rect x="106" y="392" width="64" height="52" rx="8" fill="#eef1f4" stroke="#d6dde3" stroke-width="1.5"/>
      <rect x="106" y="454" width="64" height="52" rx="8" fill="#eef1f4" stroke="#d6dde3" stroke-width="1.5"/>
      <rect x="106" y="516" width="64" height="44" rx="8" fill="#eef1f4" stroke="#d6dde3" stroke-width="1.5"/>
      <text x="138" y="306" text-anchor="middle" font-family="Arial,sans-serif"
            font-size="19" font-weight="700" fill="#0f6b5c">MA</text>
    </g>
    <ellipse cx="138.0" cy="356.0" rx="9" ry="8" fill="#ffffff" stroke="#d8dde2" stroke-width="1.2"/><ellipse cx="135.5" cy="353.5" rx="3.2" ry="2.4" fill="#ffffff" opacity=".55"/>
    <g transform="rotate(19 138.0 418.0)"><rect x="127.0" y="412.0" width="22" height="12" rx="6" fill="#e8543f" stroke="#c23f2c" stroke-width="1.2"/><rect x="127.0" y="412.0" width="22" height="5" rx="2.5" fill="#ffffff" opacity=".4"/></g>
    <g transform="rotate(38 138.0 480.0)"><rect x="129.0" y="473.0" width="18" height="14" rx="3" fill="#6aa5e8" stroke="#4a86cc" stroke-width="1.2"/></g>
    <ellipse cx="138.0" cy="538.0" rx="9" ry="8" fill="#f5d76e" stroke="#d9b73f" stroke-width="1.2"/><ellipse cx="135.5" cy="535.5" rx="3.2" ry="2.4" fill="#ffffff" opacity=".55"/>
    <g filter="url(#bakje)">
      <rect x="196" y="318" width="84" height="252" rx="14" fill="#f6f8fa"
            stroke="#c3ccd4" stroke-width="2"/>
      <rect x="206" y="330" width="64" height="52" rx="8" fill="#eef1f4" stroke="#d6dde3" stroke-width="1.5"/>
      <rect x="206" y="392" width="64" height="52" rx="8" fill="#eef1f4" stroke="#d6dde3" stroke-width="1.5"/>
      <rect x="206" y="454" width="64" height="52" rx="8" fill="#eef1f4" stroke="#d6dde3" stroke-width="1.5"/>
      <rect x="206" y="516" width="64" height="44" rx="8" fill="#eef1f4" stroke="#d6dde3" stroke-width="1.5"/>
      <text x="238" y="306" text-anchor="middle" font-family="Arial,sans-serif"
            font-size="19" font-weight="700" fill="#0f6b5c">DI</text>
    </g>
    <g transform="rotate(37 238.0 356.0)"><rect x="227.0" y="350.0" width="22" height="12" rx="6" fill="#6aa5e8" stroke="#4a86cc" stroke-width="1.2"/><rect x="227.0" y="350.0" width="22" height="5" rx="2.5" fill="#ffffff" opacity=".4"/></g>
    <g transform="rotate(56 238.0 418.0)"><rect x="229.0" y="411.0" width="18" height="14" rx="3" fill="#f5d76e" stroke="#d9b73f" stroke-width="1.2"/></g>
    <ellipse cx="238.0" cy="480.0" rx="9" ry="8" fill="#ffffff" stroke="#d8dde2" stroke-width="1.2"/><ellipse cx="235.5" cy="477.5" rx="3.2" ry="2.4" fill="#ffffff" opacity=".55"/>
    <g filter="url(#bakje)">
      <rect x="296" y="318" width="84" height="252" rx="14" fill="#ffffff"
            stroke="#c3ccd4" stroke-width="2"/>
      <rect x="306" y="330" width="64" height="52" rx="8" fill="#eef1f4" stroke="#d6dde3" stroke-width="1.5"/>
      <rect x="306" y="392" width="64" height="52" rx="8" fill="#eef1f4" stroke="#d6dde3" stroke-width="1.5"/>
      <rect x="306" y="454" width="64" height="52" rx="8" fill="#eef1f4" stroke="#d6dde3" stroke-width="1.5"/>
      <rect x="306" y="516" width="64" height="44" rx="8" fill="#eef1f4" stroke="#d6dde3" stroke-width="1.5"/>
      <text x="338" y="306" text-anchor="middle" font-family="Arial,sans-serif"
            font-size="19" font-weight="700" fill="#0f6b5c">WO</text>
    </g>
    <g transform="rotate(74 338.0 356.0)"><rect x="329.0" y="349.0" width="18" height="14" rx="3" fill="#ffffff" stroke="#d8dde2" stroke-width="1.2"/></g>
    <ellipse cx="338.0" cy="418.0" rx="9" ry="8" fill="#8fd39a" stroke="#66b174" stroke-width="1.2"/><ellipse cx="335.5" cy="415.5" rx="3.2" ry="2.4" fill="#ffffff" opacity=".55"/>
    <g transform="rotate(131 338.0 538.0)"><rect x="329.0" y="531.0" width="18" height="14" rx="3" fill="#ffffff" stroke="#d8dde2" stroke-width="1.2"/></g>
    <g filter="url(#bakje)">
      <rect x="396" y="318" width="84" height="252" rx="14" fill="#f6f8fa"
            stroke="#c3ccd4" stroke-width="2"/>
      <rect x="406" y="330" width="64" height="52" rx="8" fill="#eef1f4" stroke="#d6dde3" stroke-width="1.5"/>
      <rect x="406" y="392" width="64" height="52" rx="8" fill="#eef1f4" stroke="#d6dde3" stroke-width="1.5"/>
      <rect x="406" y="454" width="64" height="52" rx="8" fill="#eef1f4" stroke="#d6dde3" stroke-width="1.5"/>
      <rect x="406" y="516" width="64" height="44" rx="8" fill="#eef1f4" stroke="#d6dde3" stroke-width="1.5"/>
      <text x="438" y="306" text-anchor="middle" font-family="Arial,sans-serif"
            font-size="19" font-weight="700" fill="#0f6b5c">DO</text>
    </g>
    <ellipse cx="438.0" cy="356.0" rx="9" ry="8" fill="#f0a6c8" stroke="#d07fa8" stroke-width="1.2"/><ellipse cx="435.5" cy="353.5" rx="3.2" ry="2.4" fill="#ffffff" opacity=".55"/>
    <g transform="rotate(149 438.0 480.0)"><rect x="429.0" y="473.0" width="18" height="14" rx="3" fill="#e8543f" stroke="#c23f2c" stroke-width="1.2"/></g>
    <ellipse cx="438.0" cy="538.0" rx="9" ry="8" fill="#6aa5e8" stroke="#4a86cc" stroke-width="1.2"/><ellipse cx="435.5" cy="535.5" rx="3.2" ry="2.4" fill="#ffffff" opacity=".55"/>
    <g filter="url(#bakje)">
      <rect x="496" y="318" width="84" height="252" rx="14" fill="#ffffff"
            stroke="#c3ccd4" stroke-width="2"/>
      <rect x="506" y="330" width="64" height="52" rx="8" fill="#eef1f4" stroke="#d6dde3" stroke-width="1.5"/>
      <rect x="506" y="392" width="64" height="52" rx="8" fill="#eef1f4" stroke="#d6dde3" stroke-width="1.5"/>
      <rect x="506" y="454" width="64" height="52" rx="8" fill="#eef1f4" stroke="#d6dde3" stroke-width="1.5"/>
      <rect x="506" y="516" width="64" height="44" rx="8" fill="#eef1f4" stroke="#d6dde3" stroke-width="1.5"/>
      <text x="538" y="306" text-anchor="middle" font-family="Arial,sans-serif"
            font-size="19" font-weight="700" fill="#0f6b5c">VR</text>
    </g>
    <g transform="rotate(167 538.0 418.0)"><rect x="529.0" y="411.0" width="18" height="14" rx="3" fill="#6aa5e8" stroke="#4a86cc" stroke-width="1.2"/></g>
    <ellipse cx="538.0" cy="480.0" rx="9" ry="8" fill="#f5d76e" stroke="#d9b73f" stroke-width="1.2"/><ellipse cx="535.5" cy="477.5" rx="3.2" ry="2.4" fill="#ffffff" opacity=".55"/>
    <g transform="rotate(25 538.0 538.0)"><rect x="527.0" y="532.0" width="22" height="12" rx="6" fill="#ffffff" stroke="#d8dde2" stroke-width="1.2"/><rect x="527.0" y="532.0" width="22" height="5" rx="2.5" fill="#ffffff" opacity=".4"/></g>
    <g filter="url(#bakje)">
      <rect x="596" y="318" width="84" height="252" rx="14" fill="#f6f8fa"
            stroke="#c3ccd4" stroke-width="2"/>
      <rect x="606" y="330" width="64" height="52" rx="8" fill="#eef1f4" stroke="#d6dde3" stroke-width="1.5"/>
      <rect x="606" y="392" width="64" height="52" rx="8" fill="#eef1f4" stroke="#d6dde3" stroke-width="1.5"/>
      <rect x="606" y="454" width="64" height="52" rx="8" fill="#eef1f4" stroke="#d6dde3" stroke-width="1.5"/>
      <rect x="606" y="516" width="64" height="44" rx="8" fill="#eef1f4" stroke="#d6dde3" stroke-width="1.5"/>
      <text x="638" y="306" text-anchor="middle" font-family="Arial,sans-serif"
            font-size="19" font-weight="700" fill="#0f6b5c">ZA</text>
    </g>
    <g transform="rotate(5 638.0 356.0)"><rect x="629.0" y="349.0" width="18" height="14" rx="3" fill="#f5d76e" stroke="#d9b73f" stroke-width="1.2"/></g>
    <ellipse cx="638.0" cy="418.0" rx="9" ry="8" fill="#ffffff" stroke="#d8dde2" stroke-width="1.2"/><ellipse cx="635.5" cy="415.5" rx="3.2" ry="2.4" fill="#ffffff" opacity=".55"/>
    <g transform="rotate(43 638.0 480.0)"><rect x="627.0" y="474.0" width="22" height="12" rx="6" fill="#8fd39a" stroke="#66b174" stroke-width="1.2"/><rect x="627.0" y="474.0" width="22" height="5" rx="2.5" fill="#ffffff" opacity=".4"/></g>
    <g transform="rotate(62 638.0 538.0)"><rect x="629.0" y="531.0" width="18" height="14" rx="3" fill="#f0a6c8" stroke="#d07fa8" stroke-width="1.2"/></g>
    <g filter="url(#bakje)">
      <rect x="696" y="318" width="84" height="252" rx="14" fill="#ffffff"
            stroke="#c3ccd4" stroke-width="2"/>
      <rect x="706" y="330" width="64" height="52" rx="8" fill="#eef1f4" stroke="#d6dde3" stroke-width="1.5"/>
      <rect x="706" y="392" width="64" height="52" rx="8" fill="#eef1f4" stroke="#d6dde3" stroke-width="1.5"/>
      <rect x="706" y="454" width="64" height="52" rx="8" fill="#eef1f4" stroke="#d6dde3" stroke-width="1.5"/>
      <rect x="706" y="516" width="64" height="44" rx="8" fill="#eef1f4" stroke="#d6dde3" stroke-width="1.5"/>
      <text x="738" y="306" text-anchor="middle" font-family="Arial,sans-serif"
            font-size="19" font-weight="700" fill="#0f6b5c">ZO</text>
    </g>
    <ellipse cx="738.0" cy="356.0" rx="9" ry="8" fill="#8fd39a" stroke="#66b174" stroke-width="1.2"/><ellipse cx="735.5" cy="353.5" rx="3.2" ry="2.4" fill="#ffffff" opacity=".55"/>
    <g transform="rotate(61 738.0 418.0)"><rect x="727.0" y="412.0" width="22" height="12" rx="6" fill="#f0a6c8" stroke="#d07fa8" stroke-width="1.2"/><rect x="727.0" y="412.0" width="22" height="5" rx="2.5" fill="#ffffff" opacity=".4"/></g>
    <g transform="rotate(80 738.0 480.0)"><rect x="729.0" y="473.0" width="18" height="14" rx="3" fill="#ffffff" stroke="#d8dde2" stroke-width="1.2"/></g>
  <text x="400" y="682" text-anchor="middle" font-family="Georgia,serif" font-size="25"
        font-style="italic" fill="#4a5b6b">Eén dagdoosje mee in de tas, de rest blijft thuis.</text>
</svg>
